<?xml version="1.0" standalone="no"?>
<!DOCTYPE svg PUBLIC "-//W3C//DTD SVG 20010904//EN"
 "http://www.w3.org/TR/2001/REC-SVG-20010904/DTD/svg10.dtd">
<svg version="1.0" xmlns="http://www.w3.org/2000/svg"
 width="200.000000pt" height="200.000000pt" viewBox="0 0 200.000000 200.000000"
 preserveAspectRatio="xMidYMid meet">
<metadata>
Created by potrace 1.14, written by Peter Selinger 2001-2017
</metadata>
<g transform="translate(0.000000,200.000000) scale(0.100000,-0.100000)"
fill="#000000" stroke="none">
<path d="M719 1823 c0 -10 -2 -27 -4 -38 -2 -11 -7 -49 -10 -85 -3 -36 -8 -83
-11 -106 l-5 -41 35 1 c19 1 37 3 39 6 3 3 8 37 12 75 4 39 9 77 10 85 2 17
31 19 120 9 33 -4 87 -10 120 -14 33 -3 71 -8 85 -10 14 -3 54 -7 90 -10 36
-3 83 -8 105 -11 22 -3 56 -7 75 -9 19 -2 60 -7 90 -11 30 -4 71 -8 90 -9 19
-2 62 -6 95 -10 33 -4 66 -8 73 -8 13 0 12 -39 -3 -137 -2 -14 -6 -55 -10 -91
-3 -36 -7 -76 -9 -90 -5 -30 -19 -150 -31 -274 -3 -33 -8 -71 -10 -85 -2 -14
-9 -78 -16 -143 l-12 -118 -51 7 c-28 3 -64 7 -81 9 -16 1 -58 5 -92 9 l-63 8
0 -156 c0 -142 2 -156 18 -157 9 0 24 -2 33 -4 10 -1 51 -6 92 -9 41 -4 98
-11 126 -15 28 -4 54 -5 56 -1 3 4 7 29 10 56 3 27 7 67 10 89 2 22 7 63 10
90 3 28 7 64 10 80 2 17 7 59 10 95 3 36 8 81 10 100 4 34 7 54 21 170 3 30 7
71 9 90 3 32 8 83 20 180 2 19 9 82 15 140 6 58 14 125 17 150 10 80 10 83
-19 91 -14 4 -66 10 -115 14 -48 4 -90 8 -93 10 -3 1 -42 6 -87 9 -46 4 -92 9
-104 11 -11 2 -50 7 -87 10 -37 3 -74 8 -82 10 -8 2 -48 7 -89 10 -41 4 -82 8
-92 10 -10 2 -50 6 -91 10 -40 3 -80 8 -88 10 -8 2 -45 7 -82 10 -60 5 -68 4
-69 -12z"/>
<path d="M177 1493 c-2 -5 -4 -306 -4 -670 l0 -663 31 0 c48 -1 996 -1 1042
-1 l40 1 0 668 -1 667 -552 3 c-303 1 -554 -1 -556 -5z m1033 -552 l0 -469
-22 -3 c-13 -2 -228 -4 -478 -4 l-455 1 -3 472 -2 472 480 0 480 0 0 -469z"/>
</g>
</svg>
